inDegrees=no
num_controls=7
num_derivatives=13
num_iterations=38
num_multipliers=7
num_parameters=0
num_slacks=7
num_states=26
objective=0.426517
objective_accelerations=0.058948
objective_balance=0.001152
objective_effort=0.015420
objective_height=0.345056
objective_ligament=0.005941
solver_duration=559.532167
status=Solve_Succeeded
success=true
DataType=double
version=3
OpenSimVersion=4.5
endheader
time	/jointset/ground_pelvis/pelvis_tilt/value	/jointset/ground_pelvis/pelvis_tx/value	/jointset/ground_pelvis/pelvis_ty/value	/jointset/hip_l/hip_flexion_l/value	/jointset/hip_l/hip_adduction_l/value	/jointset/hip_l/hip_rotation_l/value	/jointset/back/lumbar_extension/value	/jointset/patellofemoral_l/patellar_flexion_l/value	/jointset/knee_l/knee_flexion_l/value	/jointset/knee_l/knee_adduction_l/value	/jointset/knee_l/knee_rotation_l/value	/jointset/ankle_l/ankle_angle_l/value	/jointset/subtalar_l/subtalar_angle_l/value	/jointset/ground_pelvis/pelvis_tilt/speed	/jointset/ground_pelvis/pelvis_tx/speed	/jointset/ground_pelvis/pelvis_ty/speed	/jointset/hip_l/hip_flexion_l/speed	/jointset/hip_l/hip_adduction_l/speed	/jointset/hip_l/hip_rotation_l/speed	/jointset/back/lumbar_extension/speed	/jointset/patellofemoral_l/patellar_flexion_l/speed	/jointset/knee_l/knee_flexion_l/speed	/jointset/knee_l/knee_adduction_l/speed	/jointset/knee_l/knee_rotation_l/speed	/jointset/ankle_l/ankle_angle_l/speed	/jointset/subtalar_l/subtalar_angle_l/speed	/forceset/tau_hip_flexion_l	/forceset/tau_hip_adduction_l	/forceset/tau_hip_rotation_l	/forceset/tau_knee_flexion_l	/forceset/tau_ankle_angle_l	/forceset/tau_subtalar_angle_l	/forceset/tau_lumbar_extension	lambda_cid13_p0	lambda_cid13_p1	lambda_cid13_p2	lambda_cid13_p3	lambda_cid13_p4	lambda_cid13_p5	lambda_cid14_p0	/jointset/ground_pelvis/pelvis_tilt/accel	/jointset/ground_pelvis/pelvis_tx/accel	/jointset/ground_pelvis/pelvis_ty/accel	/jointset/hip_l/hip_flexion_l/accel	/jointset/hip_l/hip_adduction_l/accel	/jointset/hip_l/hip_rotation_l/accel	/jointset/back/lumbar_extension/accel	/jointset/patellofemoral_l/patellar_flexion_l/accel	/jointset/knee_l/knee_flexion_l/accel	/jointset/knee_l/knee_adduction_l/accel	/jointset/knee_l/knee_rotation_l/accel	/jointset/ankle_l/ankle_angle_l/accel	/jointset/subtalar_l/subtalar_angle_l/accel	gamma_cid13_p0	gamma_cid13_p1	gamma_cid13_p2	gamma_cid13_p3	gamma_cid13_p4	gamma_cid13_p5	gamma_cid14_p0
0	0.04747310289784242	0.1083164809544358	0.9028531069850115	0.1266922784136757	-0.3701644451570014	-0.2283938973448818	-0.2144969558742783	0.2051545070142087	0.2051545070141877	-0.1744452105398563	-0.1634512031761664	0.09024313228550125	0.07893407506070164	0	0	0	0	0	0	0	0	0	0	0	0	0	0.1105221734163678	-0.03441442564549004	-0.009855049639787238	-0.2438036529327078	0.1859738484207235	-0.1074503782112071	-0.04418522916102081	27.69804685806434	42.64864313819163	-8.031481264688891	-19.3243907760902	-441.0630110161901	-30.46692451831227	-26.36067074183162	-3.523355959704994	-1.014448978587232	-0.8243632345433773	11.7535503460328	0.3159231529497755	4.551009090938242	-2.974812906305211	10.5812288015712	10.58122880157081	3.191455435012432	0.5915102727438376	3.770236878831384	1.417479320102554	1.294473701932229e-07	3.037677972108876e-06	-1.105350169666165e-06	2.692385774948705e-07	1.206528078193641e-07	1.809554393721139e-06	4.75972518516986e-07
0.01	0.04730565085706093	0.1082662206595369	0.9028129014371868	0.127260519431286	-0.3701524197385955	-0.2281744122724546	-0.2146569137341038	0.2056701702075452	0.2056701702067828	-0.1742964015481587	-0.1634262298372323	0.09042518961107718	0.07899903271572566	-0.03326272576751111	-0.01003233818134106	-0.008043424117824017	0.1128139833169264	0.001904595723867385	0.04210509879232763	-0.0324393885428574	0.1026160247530456	0.1026160247530425	0.02868891307053197	0.003248210796133945	0.03595711965162835	0.01233786262438089	0.1122800242430305	-0.04440653676802982	-0.01025329028435364	-0.2470057984547262	0.1875723536132953	-0.09989730149358247	-0.04560179155519302	28.65627534154365	39.24727623225316	-7.542566343646026	-19.94981972777361	-440.7999289822189	-37.86890249602097	-26.35828839053603	-3.193559334223996	-0.9946142745511266	-0.794655052540809	10.92020564517648	0.05238796750815451	3.77172374325076	-3.445674312310503	10.02420204806188	10.02420204806132	2.547053867514051	-0.07073895547010293	3.440388715564013	1.043541795090405	6.442530703717012e-08	1.586122193359504e-06	-4.814134666253046e-07	1.473363577283941e-07	-1.399385147203503e-07	8.093351424304588e-07	2.529550074042729e-07
0.02	0.04681240586875548	0.1081162393754909	0.9026921970377513	0.1289318769462199	-0.3701364163259716	-0.2275875835182272	-0.2151546999761632	0.2071964761944545	0.2071964761944658	-0.1738928145018266	-0.163421217479974	0.09095320597454862	0.07916768940929231	-0.06515858949284482	-0.01994419782941776	-0.01609977032222023	0.2206232994598317	0.0007955988637345224	0.07346873637938529	-0.06756567644690023	0.2021285589417069	0.2021285589417128	0.05095561111869806	-0.003992195948406831	0.06919180759269025	0.02073980770814908	0.1140378750711472	-0.05439864788992398	-0.01065153091916169	-0.2502079439771498	0.1891708588064117	-0.09234422477521763	-0.0470183539486632	29.66159247586386	35.85807274796773	-7.078905160324657	-20.61975401635879	-439.6683935495805	-45.06360172721043	-26.35387184619558	-3.24998355126773	-0.9903532719358346	-0.8269476518577412	10.75261691122865	-0.2867953638503291	2.402716849884196	-3.512192778541307	9.960530688694512	9.960530688696558	1.907012430539121	-1.506213235391379	3.22575053671636	0.6302958119793896	-5.967561188826659e-10	1.345664146101317e-07	1.425232364155553e-07	2.543413796191757e-08	-4.005298372600646e-07	-1.908841088602214e-07	2.993749629155984e-08
0.03	0.04600629257128712	0.1078682510579718	0.9024908335805721	0.1316607954817774	-0.3701407746304989	-0.2267204692412175	-0.2160067522518176	0.2097047094072357	0.2097047094077996	-0.1732876103292462	-0.1635194108966441	0.09180454764340279	0.0794081107242047	-0.09586963587640107	-0.02958250411912274	-0.02417029169933404	0.3247390131602136	-0.001550939798745998	0.1005935246537798	-0.1022964132290315	0.2991771154129428	0.2991771154129642	0.07015947673703309	-0.0148175887796702	0.1010953295073393	0.027472234756772	0.1080403306026677	-0.04890265902948865	-0.009231060265591673	-0.2427550416793456	0.1800096823753242	-0.09322301591789571	-0.04239158613812822	26.68614511529308	36.52118218179142	-6.911022941639756	-18.98752617409809	-439.473470289116	-42.58369278744097	-26.35050887503178	-2.952489418959628	-0.9399204836350692	-0.7967911271544278	10.17784429225736	-0.1911828369065102	2.963250186237066	-3.371259307131566	9.525867800115215	9.525867800116796	1.938252086092129	-0.7463452916657152	3.175484423365279	0.7138477868192098	-1.374906486687499e-08	8.724578640183157e-07	3.519901539326654e-08	1.05900739465068e-07	-5.199384745249547e-07	1.004368943914729e-07	1.206508559421359e-07
0.04	0.04489890396250218	0.1075260094423238	0.9022088275603161	0.1354182302927468	-0.3701651182654831	-0.225562929007319	-0.2171896609311341	0.2131731981201558	0.2131731981201662	-0.1724881318079534	-0.1637009868374311	0.09297549081237104	0.07971968263670851	-0.1254136517419299	-0.03879485745519306	-0.03222828293762894	0.4263265545732645	-0.003201467239487183	0.1315539277289846	-0.1337369571742819	0.3941796588352253	0.3941796588352503	0.08981048069975354	-0.0206687009978716	0.1331121076029785	0.03496992722597434	0.1020427861321488	-0.04340667016959435	-0.007810589617804568	-0.235302139382306	0.170848505943505	-0.09410180706130043	-0.03776481832848382	23.75372303986902	37.19238831922673	-6.762285839416921	-17.40470772672014	-438.4975005735275	-39.92951982016203	-26.34670414861481	-3.016577447660615	-0.9051626812102347	-0.8244416240938903	10.24698245376252	-0.1475931195025971	3.169839810046186	-2.854154211164281	9.551328078903982	9.551328078903687	1.996440099416148	-0.5113571127792612	3.248401772912834	0.7833488960947422	-2.583189414253616e-08	1.655492555244182e-06	-8.720275045506698e-08	1.905398939840872e-07	-6.364361285883021e-07	4.183875936131136e-07	2.178328933404087e-07
